<?xml version="1.0" encoding="utf-8"?>
<!-- Generator: Adobe Illustrator 16.0.0, SVG Export Plug-In . SVG Version: 6.00 Build 0)  -->
<!DOCTYPE svg PUBLIC "-//W3C//DTD SVG 1.1//EN" "http://www.w3.org/Graphics/SVG/1.1/DTD/svg11.dtd">
<svg version="1.1" id="Layer_1" xmlns="http://www.w3.org/2000/svg" xmlns:xlink="http://www.w3.org/1999/xlink" x="0px" y="0px"
	 width="727px" height="683px" viewBox="0 0 727 683" enable-background="new 0 0 727 683" xml:space="preserve">
<g>
	<g>
		<path fill-rule="evenodd" clip-rule="evenodd" fill="#F1FCFA" d="M722.362,601.706c-1.137-40.369-34.781-72.174-75.146-71.035
			c-8.401,0.236-16.422,1.899-23.861,4.721l-163.81-392.879c23.434-12.732,39.041-37.854,38.238-66.339
			C496.646,35.804,463.003,4,422.639,5.137c-40.364,1.138-72.164,34.786-71.027,75.156c0.689,24.454,13.317,45.748,32.129,58.498
			L132.067,551.293c-13.763-14.111-33.147-22.654-54.403-22.056C37.3,530.375,5.5,564.023,6.637,604.394
			c1.138,40.37,34.781,72.174,75.146,71.036c40.364-1.137,72.164-34.785,71.026-75.155c-0.295-10.487-2.801-20.387-7.032-29.291
			l190.143-69.33c7.39,13.482,21.88,22.451,38.303,21.987c23.355-0.658,41.755-20.127,41.097-43.486
			c-0.658-23.358-20.125-41.761-43.48-41.103c-23.355,0.658-41.755,20.128-41.097,43.486c0.116,4.101,0.822,8.043,2.016,11.761
			l-190.851,69.589c-1.34-2.164-2.785-4.253-4.335-6.257l253.026-414.719c10.773,5.694,23.11,8.786,36.159,8.418
			c9.044-0.255,17.651-2.153,25.561-5.381l163.724,392.673c-24.331,12.438-40.673,38.067-39.852,67.205
			c1.138,40.369,34.781,72.174,75.146,71.036S723.5,642.077,722.362,601.706z"/>
	</g>
</g>
</svg>
